Coordinates
version=1
nRows=24
nColumns=24
inDegrees=yes

Units are S.I. units (second, meters, Newtons, ...)
Angles are in degrees.

endheader
time	pelvis_tilt	pelvis_list	pelvis_rotation	pelvis_tx	pelvis_ty	pelvis_tz	hip_flexion_r	hip_adduction_r	hip_rotation_r	knee_angle_r	ankle_angle_r	subtalar_angle_r	mtp_angle_r	hip_flexion_l	hip_adduction_l	hip_rotation_l	knee_angle_l	ankle_angle_l	subtalar_angle_l	mtp_angle_l	lumbar_extension	lumbar_bending	lumbar_rotation
      1.26000000	      6.40102233	     -6.33560285	     -8.73196870	     -0.69969958	      0.99012734	      0.04821820	    -25.10106104	      3.73988577	      2.73089363	     -3.86401470	     17.51410518	     11.26033105	      4.54748214	     16.45601640	     -8.56782950	    -17.70152817	     -2.30992906	      0.70618270	      9.50428703	     23.05581847	    -16.91840213	      6.74281197	      9.16174197
      1.26500000	      6.44301401	     -6.22739680	     -8.75168145	     -0.69337720	      0.98946688	      0.04777827	    -25.40461372	      3.50348008	      2.68686740	     -4.05521361	     17.54064147	     11.42690046	      4.70305889	     16.49564112	     -8.41582841	    -17.67920858	     -2.82394258	      0.43431162	      8.95932826	     23.04748987	    -16.91261375	      6.58077655	      9.11695571
      1.27000000	      6.47316410	     -6.12501087	     -8.72590752	     -0.68706328	      0.98881775	      0.04726692	    -25.68014932	      3.29496651	      2.60464610	     -4.27290647	     17.53033513	     11.60013850	      4.98282039	     16.55806282	     -8.25922177	    -17.55371215	     -3.37059058	      0.08395836	      8.37860697	     23.13198461	    -16.89373578	      6.43738741	      9.03494469
      1.27500000	      6.44408056	     -5.99977882	     -8.70944197	     -0.68073939	      0.98814708	      0.04675728	    -25.87713499	      3.07445210	      2.55995005	     -4.49444808	     17.27039676	     11.63115636	      7.45121341	     16.68539835	     -8.09020600	    -17.40842396	     -3.93815032	     -0.48233687	      7.71874347	     24.70646209	    -16.80873579	      6.27706129	      8.97075193
      1.28000000	      6.45617225	     -5.82921723	     -8.69799003	     -0.67439085	      0.98761763	      0.04625767	    -26.09280191	      2.80360087	      2.53229398	     -4.76354251	     17.23056719	     11.64928207	      7.54089587	     16.74149570	     -7.86871979	    -17.30776767	     -4.49006239	     -0.95588504	      7.27567470	     24.63002986	    -16.76247580	      6.05542120	      8.87528122
      1.28500000	      6.38853259	     -5.71551891	     -8.62695689	     -0.66814927	      0.98704150	      0.04560691	    -26.19119297	      2.62590785	      2.43971905	     -5.08130117	     16.97991043	     11.72244955	      9.70279887	     16.91194731	     -7.69441510	    -16.98530771	     -5.06978449	     -1.62284367	      6.53541380	     25.60726420	    -16.64963442	      5.93086721	      8.77894001
      1.29000000	      6.39081383	     -5.53190641	     -8.54478174	     -0.66183391	      0.98664300	      0.04496098	    -26.35564524	      2.37648805	      2.33898246	     -5.40581454	     16.86816348	     11.76364403	      9.88219631	     16.98455579	     -7.43516141	    -16.72961565	     -5.62897237	     -2.19452332	      5.99422734	     25.55120980	    -16.59722644	      5.71533053	      8.62335208
      1.29500000	      6.32677367	     -5.34943409	     -8.44535005	     -0.65556846	      0.98623845	      0.04427227	    -26.39414789	      2.15120400	      2.18560955	     -5.82623436	     16.74159881	     11.86239302	     10.26762148	     17.13521714	     -7.18233118	    -16.40954116	     -6.19676690	     -2.81813920	      5.41709817	     25.62823875	    -16.47919604	      5.51613400	      8.45603032
      1.30000000	      6.18772137	     -5.17612801	     -8.35801906	     -0.64936641	      0.98584930	      0.04358701	    -26.32917369	      1.95198118	      2.14447937	     -6.26105764	     16.29816479	     11.67738478	     13.50986913	     17.36831839	     -6.95893848	    -16.10110432	     -6.76538478	     -3.64862580	      4.80806293	     27.25782636	    -16.29145756	      5.33744891	      8.33335124
      1.30500000	      6.14990948	     -4.94508982	     -8.21957299	     -0.64309420	      0.98566644	      0.04282404	    -26.34934116	      1.69683783	      1.95634155	     -6.74221468	     16.10597970	     11.73046783	     13.72188118	     17.48583870	     -6.64553855	    -15.77989616	     -7.33530783	     -4.23260672	      4.29560294	     27.15747086	    -16.20046567	      5.08832315	      8.12015531
      1.31000000	      6.04092274	     -4.72305619	     -8.06930165	     -0.63687610	      0.98548754	      0.04202985	    -26.23616254	      1.47132167	      1.74433751	     -7.32424519	     15.90212223	     11.80916456	     14.13566071	     17.69385386	     -6.35305081	    -15.41488672	     -7.93555187	     -4.79600603	      3.75651224	     27.15307267	    -16.04084073	      4.86296368	      7.90636265
      1.31500000	      5.88757072	     -4.54159611	     -7.93446850	     -0.63075056	      0.98537275	      0.04127914	    -26.04454362	      1.30062089	      1.65214300	     -7.92767042	     15.27459013	     11.51091784	     18.16885735	     17.95803799	     -6.12811315	    -15.07516024	     -8.56381863	     -5.45887511	      3.23309776	     28.24546100	    -15.85326409	      4.68101179	      7.75447010
      1.32000000	      5.83014001	     -4.29429876	     -7.74196979	     -0.62451011	      0.98544981	      0.04042819	    -25.92797369	      1.06180881	      1.35481203	     -8.59816920	     14.99085429	     11.62786989	     18.39320037	     18.11267024	     -5.80168539	    -14.72145756	     -9.19274547	     -5.89149899	      2.74580778	     28.13558573	    -15.75124576	      4.42467332	      7.50278056
      1.32500000	      5.64926899	     -4.09867708	     -7.59147841	     -0.61837380	      0.98548848	      0.03963140	    -25.62095725	      0.88579909	      1.19814266	     -9.34817033	     14.36431182	     11.42756853	     21.54372841	     18.41200013	     -5.56789148	    -14.37839055	     -9.87131052	     -6.28527203	      2.26801921	     28.31455248	    -15.53613041	      4.23434251	      7.33499929
      1.33000000	      5.61512579	     -3.85777798	     -7.36590487	     -0.61216186	      0.98577362	      0.03872744	    -25.43645719	      0.66176468	      0.81108568	    -10.17827766	     14.02973480	     11.58758581	     21.77967996	     18.54824673	     -5.24650966	    -14.01269577	    -10.53700466	     -6.58720159	      1.83243386	     28.22856970	    -15.47011545	      3.98677549	      7.07598332
      1.33500000	      5.42553253	     -3.70827556	     -7.15921291	     -0.60609691	      0.98596138	      0.03785951	    -25.03265826	      0.55862206	      0.61493854	    -11.07821846	     13.34362679	     11.31866135	     24.55159514	     18.87989799	     -5.05534891	    -13.60222819	    -11.28230206	     -6.76989346	      1.43662844	     28.13965239	    -15.26522493	      3.85694627	      6.85782040
      1.34000000	      5.42384117	     -3.45794032	     -6.97096398	     -0.59986592	      0.98647840	      0.03695041	    -24.77513856	      0.28547896	      0.17218075	    -12.08495112	     12.92240054	     11.65337952	     24.91529965	     18.93710958	     -4.72651491	    -13.29412098	    -11.91345646	     -6.90915250	      1.01217820	     28.03976565	    -15.24119623	      3.59020544	      6.65680861
      1.34500000	      5.32905286	     -3.27709112	     -6.78598011	     -0.59374030	      0.98695095	      0.03609522	    -24.38300975	      0.10995133	     -0.12292123	    -13.11737522	     12.09864656	     11.49769817	     28.40991393	     19.12531570	     -4.49895005	    -12.99817334	    -12.63154685	     -6.89476019	      0.75996332	     27.53837066	    -15.13724723	      3.40639413	      6.46696703
      1.35000000	      5.31670747	     -3.06624224	     -6.57630581	     -0.58758975	      0.98759447	      0.03514493	    -24.02022559	     -0.12082548	     -0.55265962	    -14.27686479	     11.58541907	     11.72261498	     28.62729218	     19.18785994	     -4.20610349	    -12.66991581	    -13.27489855	     -6.90046948	      0.41840147	     27.45361687	    -15.11964406	      3.18958685	      6.25439542
      1.35500000	      5.25148443	     -2.90032719	     -6.40216352	     -0.58149921	      0.98824544	      0.03424165	    -23.55282292	     -0.31239646	     -0.87666363	    -15.48252380	     10.72235977	     11.64794895	     31.53090524	     19.29499563	     -3.97841986	    -12.37565929	    -13.93415092	     -6.68403866	      0.25282476	     26.64541561	    -15.05953623	      3.02297339	      6.09375787
      1.36000000	      5.25995466	     -2.69644534	     -6.21203309	     -0.57537540	      0.98904318	      0.03326012	    -23.10667087	     -0.57363575	     -1.33262689	    -16.80482967	     10.09937659	     11.91713436	     31.72642818	     19.27679620	     -3.68308848	    -12.09514566	    -14.49985824	     -6.56733528	      0.02287250	     26.57289788	    -15.07321795	      2.81479251	      5.91144935
      1.36500000	      5.22710671	     -2.53319851	     -6.05768955	     -0.56932518	      0.98986259	      0.03232936	    -22.56991737	     -0.80121340	     -1.67490665	    -18.16305503	      9.15200121	     11.88199082	     34.30540406	     19.27943801	     -3.44282759	    -11.84531814	    -15.05513593	     -6.23650523	     -0.04518549	     25.53516237	    -15.05469316	      2.64913460	      5.77633763
      1.37000000	      5.25648483	     -2.31946068	     -5.92088945	     -0.56323877	      0.99081212	      0.03138222	    -22.04898766	     -1.11680967	     -2.06009995	    -19.61568800	      8.41150909	     12.09576435	     34.39844553	     19.15046931	     -3.13518927	    -11.66720940	    -15.48856540	     -6.00995172	     -0.16407655	     25.49762303	    -15.09771503	      2.42164990	      5.62077264
      1.37500000	      5.23264717	     -2.17604623	     -5.77276162	     -0.55732239	      0.99170819	      0.03037671	    -21.40657401	     -1.35899685	     -2.41322093	    -21.14295200	      7.46918175	     12.10179996	     36.34626723	     19.08473003	     -2.89415870	    -11.41980255	    -15.94020791	     -5.62326481	     -0.18829597	     24.33100500	    -15.10530004	      2.28706293	      5.51990004
